<?xml version="1.0" encoding="UTF-8"?>
<svg width="24px" height="44px" viewBox="0 0 24 44" version="1.1" xmlns="http://www.w3.org/2000/svg" xmlns:xlink="http://www.w3.org/1999/xlink">
    <!-- Generator: Sketch 52.4 (67378) - http://www.bohemiancoding.com/sketch -->
    <title>Group 6</title>
    <desc>Created with Sketch.</desc>
    <g id="Page-1" stroke="none" stroke-width="1" fill="none" fill-rule="evenodd">
        <g id="Default-state-UT" transform="translate(-221.000000, -679.000000)" fill-rule="nonzero">
            <g id="Group-6" transform="translate(221.000000, 679.000000)">
                <rect id="Rectangle-Copy-4" stroke="#000000" fill="#FFFFFF" x="7.5" y="0.5" width="9" height="40" rx="1"></rect>
                <rect id="Rectangle-Copy-2" stroke="#000000" fill="#FFFFFF" x="0.5" y="3.5" width="23" height="40" rx="1"></rect>
                <g id="flash" transform="translate(8.000000, 18.000000)" fill="#000000">
                    <path d="M8.97118016,5.49334375 C8.91832039,5.3866875 8.83904623,5.33334375 8.73335766,5.33334375 L5.61525081,5.33334375 L8.70694326,0.4 C8.75980303,0.32 8.75980303,0.21334375 8.70694326,0.13334375 C8.6540835,0.05334375 8.57480933,0 8.46912076,0 L4.24117559,0 C4.13548703,0 4.05621286,0.05334375 4.0033531,0.13334375 L0.0396448244,8.13334375 C-0.0132149415,8.21334375 -0.0132149415,8.32 0.0396448244,8.4 C0.0925045902,8.48 0.198193155,8.53334375 0.277467321,8.53334375 L2.99920335,8.53334375 L0.0396448244,15.6533437 C-0.0132149415,15.76 0.0396448244,15.8933437 0.14533339,15.9733437 C0.171747789,16 0.224607555,16 0.277467321,16 C0.356741486,16 0.436015652,15.9733437 0.488875418,15.92 L8.94479672,5.78665625 C8.99762552,5.70665625 9.02403992,5.6 8.97118016,5.49334375 Z M1.20231194,14.2133437 L3.63339667,8.3466875 C3.65981107,8.2666875 3.65981107,8.1866875 3.60698227,8.1066875 C3.55412251,8.05334375 3.47484834,8.00003125 3.39557417,8.00003125 L0.700252548,8.00003125 L4.39972393,0.53334375 L7.99347577,0.53334375 L4.87536892,5.46665625 C4.82250915,5.54665625 4.82250915,5.6533125 4.87536892,5.7333125 C4.92822868,5.8133125 5.00750285,5.86665625 5.11319142,5.86665625 L8.17846947,5.86665625 L1.20231194,14.2133437 Z" id="Shape"></path>
                </g>
            </g>
        </g>
    </g>
</svg>