<?xml version="1.0" encoding="UTF-8"?>
<svg width="48px" height="48px" viewBox="0 0 48 48" version="1.1" xmlns="http://www.w3.org/2000/svg" xmlns:xlink="http://www.w3.org/1999/xlink">
    <!-- Generator: Sketch 52.4 (67378) - http://www.bohemiancoding.com/sketch -->
    <title>Group 8</title>
    <desc>Created with Sketch.</desc>
    <g id="Page-1" stroke="none" stroke-width="1" fill="none" fill-rule="evenodd">
        <g id="Default-state-UT" transform="translate(-490.000000, -678.000000)" fill-rule="nonzero" stroke="#000000">
            <g id="Group-8" transform="translate(490.000000, 679.000000)">
                <rect id="Rectangle" fill="#FFFFFF" x="7.5" y="6.5" width="33" height="33" rx="1"></rect>
                <rect id="Rectangle-Copy-5" fill="#FFFFFF" x="16.5" y="15.5" width="15" height="15" rx="1"></rect>
                <g id="Group-7" transform="translate(14.000000, 0.000000)" stroke-linecap="round" stroke-linejoin="round">
                    <path d="M0.588235294,0 L0.588235294,9.16666667" id="Line-3-Copy-2"></path>
                    <path d="M5.29411765,0 L5.29411765,9.16666667" id="Line-3-Copy-3"></path>
                    <path d="M10,0 L10,9.16666667" id="Line-3-Copy-4"></path>
                    <path d="M14.7058824,0 L14.7058824,9.16666667" id="Line-3-Copy-5"></path>
                    <path d="M19.4117647,0 L19.4117647,9.16666667" id="Line-3-Copy-6"></path>
                </g>
                <g id="Group-7-Copy-2" transform="translate(42.000000, 23.000000) rotate(-270.000000) translate(-42.000000, -23.000000) translate(32.000000, 18.000000)" stroke-linecap="round" stroke-linejoin="round">
                    <path d="M0.588235294,0 L0.588235294,9.16666667" id="Line-3-Copy-2"></path>
                    <path d="M5.29411765,0 L5.29411765,9.16666667" id="Line-3-Copy-3"></path>
                    <path d="M10,0 L10,9.16666667" id="Line-3-Copy-4"></path>
                    <path d="M14.7058824,0 L14.7058824,9.16666667" id="Line-3-Copy-5"></path>
                    <path d="M19.4117647,0 L19.4117647,9.16666667" id="Line-3-Copy-6"></path>
                </g>
                <g id="Group-7-Copy-3" transform="translate(5.000000, 23.000000) rotate(-270.000000) translate(-5.000000, -23.000000) translate(-5.000000, 18.000000)" stroke-linecap="round" stroke-linejoin="round">
                    <path d="M0.588235294,0 L0.588235294,9.16666667" id="Line-3-Copy-2"></path>
                    <path d="M5.29411765,0 L5.29411765,9.16666667" id="Line-3-Copy-3"></path>
                    <path d="M10,0 L10,9.16666667" id="Line-3-Copy-4"></path>
                    <path d="M14.7058824,0 L14.7058824,9.16666667" id="Line-3-Copy-5"></path>
                    <path d="M19.4117647,0 L19.4117647,9.16666667" id="Line-3-Copy-6"></path>
                </g>
                <g id="Group-7-Copy" transform="translate(14.000000, 37.000000)" stroke-linecap="round" stroke-linejoin="round">
                    <path d="M0.588235294,0 L0.588235294,9.16666667" id="Line-3-Copy-2"></path>
                    <path d="M5.29411765,0 L5.29411765,9.16666667" id="Line-3-Copy-3"></path>
                    <path d="M10,0 L10,9.16666667" id="Line-3-Copy-4"></path>
                    <path d="M14.7058824,0 L14.7058824,9.16666667" id="Line-3-Copy-5"></path>
                    <path d="M19.4117647,0 L19.4117647,9.16666667" id="Line-3-Copy-6"></path>
                </g>
            </g>
        </g>
    </g>
</svg>