<svg width="17px" height="18px" viewBox="0 0 17 18" version="1.1" xmlns="http://www.w3.org/2000/svg" xmlns:xlink="http://www.w3.org/1999/xlink">
    <!-- Generator: Sketch 52.4 (67378) - http://www.bohemiancoding.com/sketch -->
    <title>Reload</title>
    <desc>Created with Sketch.</desc>
    <g id="Page-1" stroke="none" stroke-width="1" fill="none" fill-rule="evenodd">
        <g id="Results-UT" transform="translate(-199.000000, -697.000000)" fill="#000000">
            <g id="Group-3" transform="translate(199.000000, 695.000000)">
                <g id="reload" transform="translate(0.000000, 2.000000)">
                    <path d="M3.50601332,3.50799146 C6.28625835,1.14551625 10.4470123,1.10939278 13.2657116,3.26596419 L11.0315175,3.34543583 C10.7431103,3.35627287 10.5200755,3.58023841 10.5316117,3.85116447 C10.543148,4.11486583 10.7738738,4.32076963 11.0507446,4.32076963 C11.0584355,4.32076963 11.0622809,4.32076963 11.0699718,4.32076963 L14.5000943,4.20156217 C14.7808106,4.19072512 15,3.97759663 15,3.71389526 L15,3.67777179 C15,3.6705471 15,3.66693475 15,3.65971005 L15,3.65609771 L14.8731008,0.470007286 C14.8615646,0.19908123 14.6193025,-0.0104349199 14.3347408,0.000402122318 C14.0463337,0.0112391646 13.8232988,0.235204704 13.8348351,0.50613076 L13.9155891,2.50375888 C12.5196984,1.4308917 10.8007918,0.809567943 8.96267679,0.722871605 C6.68618294,0.614501183 4.49813395,1.34780771 2.80999071,2.78552198 C0.487351718,4.76147601 -0.497078054,7.76694906 0.241244275,10.6279282 C0.298925707,10.8518938 0.510424291,11 0.744995448,11 C0.787295165,11 0.825749453,10.9963877 0.868049169,10.9855506 C1.14492004,10.9205284 1.31796434,10.656827 1.24874662,10.396738 C0.602714582,7.88254418 1.46409063,5.24191822 3.50601332,3.50799146 Z" id="Path"></path>
                    <path d="M16.7595939,7.37197755 C16.6906167,7.11187639 16.4108758,6.94931317 16.1349669,7.01433846 C15.8590581,7.07936375 15.686615,7.34307743 15.7555923,7.60317859 C16.4032117,10.1174898 15.5409965,12.7582391 13.5061686,14.4922468 C12.0768075,15.7096648 10.2833999,16.3093425 8.4976564,16.3093425 C6.79238636,16.3093425 5.09094839,15.7638525 3.71906822,14.6873227 L5.97232391,14.4958594 C6.25589691,14.4705717 6.46666062,14.2357582 6.43983615,13.9648195 C6.41301168,13.6938808 6.16392729,13.4988049 5.87652223,13.5240925 L2.46981421,13.8130938 C2.18624122,13.8383814 1.9754775,14.073195 2.00230198,14.3441337 L2.30886738,17.5556605 C2.33185978,17.8085366 2.55795177,18 2.82236442,18 C2.83769269,18 2.85302096,18 2.86834923,17.9963875 C3.15192223,17.9710999 3.36268594,17.7362863 3.33586147,17.4653476 L3.15192223,15.5109764 C4.54296273,16.5730561 6.24823278,17.1907964 8.06846484,17.2774968 C8.21408341,17.2847218 8.35970197,17.2883343 8.50148847,17.2883343 C10.6129577,17.2883343 12.620961,16.5586061 14.1997729,15.2147501 C16.5143416,13.2387037 17.4953509,10.2367028 16.7595939,7.37197755 Z" id="Path"></path>
                </g>
            </g>
        </g>
    </g>
</svg>