<?xml version="1.0" encoding="UTF-8"?>
<svg width="24px" height="49px" viewBox="0 0 24 49" version="1.1" xmlns="http://www.w3.org/2000/svg" xmlns:xlink="http://www.w3.org/1999/xlink">
    <!-- Generator: Sketch 52.4 (67378) - http://www.bohemiancoding.com/sketch -->
    <title>Group 4</title>
    <desc>Created with Sketch.</desc>
    <g id="Page-1" stroke="none" stroke-width="1" fill="none" fill-rule="evenodd" stroke-linecap="round" stroke-linejoin="round">
        <g id="Default-state-UT" transform="translate(-221.000000, -517.000000)" stroke="#000000" stroke-width="0.8">
            <g id="Group-4" transform="translate(222.000000, 518.000000)">
                <path d="M2,-0.4 L20,-0.4 C21.3254834,-0.4 22.4,0.6745166 22.4,2 L22.4,45 C22.4,46.3254834 21.3254834,47.4 20,47.4 L2,47.4 C0.6745166,47.4 -0.4,46.3254834 -0.4,45 L-0.4,2 C-0.4,0.6745166 0.6745166,-0.4 2,-0.4 Z" id="Rectangle-14" fill="#FFFFFF"></path>
                <path d="M2.4,1.7779661 L19.6,1.7779661 C21.1463973,1.7779661 22.4,3.0315688 22.4,4.5779661 L22.4,42.5677419 C22.4,44.1141392 21.1463973,45.3677419 19.6,45.3677419 L2.4,45.3677419 C0.8536027,45.3677419 -0.4,44.1141392 -0.4,42.5677419 L-0.4,4.5779661 C-0.4,3.0315688 0.8536027,1.7779661 2.4,1.7779661 Z" id="Rectangle-14"></path>
            </g>
        </g>
    </g>
</svg>