<?xml version="1.0" encoding="UTF-8"?>
<svg width="35px" height="43px" viewBox="0 0 35 43" version="1.1" xmlns="http://www.w3.org/2000/svg" xmlns:xlink="http://www.w3.org/1999/xlink">
    <!-- Generator: Sketch 52.4 (67378) - http://www.bohemiancoding.com/sketch -->
    <title>Group 5</title>
    <desc>Created with Sketch.</desc>
    <g id="Page-1" stroke="none" stroke-width="1" fill="none" fill-rule="evenodd">
        <g id="Default-state-UT" transform="translate(-776.000000, -526.000000)" fill-rule="nonzero" stroke="#000000">
            <g id="Group-5" transform="translate(776.000000, 526.000000)">
                <path d="M34.5,7.48673612 L29.5379617,3.56189155 C29.5225985,3.54978612 29.5225985,3.54978612 29.5071455,3.5377955 L25.5770814,0.5 L4,0.5 C2.06700338,0.5 0.5,2.06700338 0.5,4 L0.5,39 C0.5,40.9329966 2.06700338,42.5 4,42.5 L31,42.5 C32.9329966,42.5 34.5,40.9329966 34.5,39 L34.5,7.48673612 Z" id="Rectangle" fill="#FFFFFF"></path>
                <path d="M10.5,9 L10.5,13.1666667" id="Line-3" stroke-linecap="round" stroke-linejoin="round"></path>
                <path d="M16.5,9 L16.5,13.1666667" id="Line-3-Copy" stroke-linecap="round" stroke-linejoin="round"></path>
                <path d="M22.5,9 L22.5,13.1666667" id="Line-3-Copy-2" stroke-linecap="round" stroke-linejoin="round"></path>
                <rect id="Rectangle-Copy-2" fill="#FFFFFF" x="6.5" y="18.5" width="22" height="19" rx="1"></rect>
            </g>
        </g>
    </g>
</svg>